<svg height="24" viewBox="0 0 24 24" width="24" xmlns="http://www.w3.org/2000/svg">
<path d="m3 4.5v2.00657781c0 8.00812889 6.49187113 14.49999999 14.5 14.49999999h2c.8284271 0 1.5-.6715729 1.5-1.5v-2.5650594c0-.6456456-.4131451-1.2188538-1.0256584-1.4230249l-3.1832548-1.0610849c-.6417146-.2139049-1.3472031.0281537-1.7224171.5909746l-.7289668 1.0934503c-.375214.562821-1.0807025.8048796-1.7224171.5909747l-1.5253997-.5084666c-1.56427308-.5214243-2.76445443-1.7901331-3.19830573-3.3809212l-.62705678-2.2992082c-.20946791-.768049.21755678-1.56595193.97280409-1.81770104l.60255844-.20085281c.63038728-.21012909 1.01422021-.8476391.9049793-1.50308459l-.46152871-2.76917224c-.12054699-.72328196-.74633216-1.25340152-1.47959089-1.25340152h-3.30574582c-.82842712 0-1.5.67157288-1.5 1.5zm-1 0c0-1.38071187 1.11928813-2.5 2.5-2.5h3.30574582c1.22209789 0 2.26507318.88353261 2.46598478 2.08900253l.4615287 2.76917224c.1901374 1.14082387-.4779362 2.25043046-1.57514542 2.61616688l-.60255844.20085281c-.2517491.08391637-.39409066.34988404-.32426802.60590034l.62705677 2.2992082c.34587715 1.2682162 1.30269191 2.2796627 2.54976971 2.6953554l1.5253996.5084665c.2139049.0713016.4490677-.0093846.5741391-.1969916l.7289668-1.0934503c.6253566-.9380349 1.8011709-1.3414659 2.8706952-.9849577l3.1832548 1.0610849c1.0208554.3402851 1.7094306 1.2956322 1.7094306 2.3717082v2.5650594c0 1.3807119-1.1192881 2.5-2.5 2.5h-2c-8.56041362 0-15.5-6.9395864-15.5-15.49999999z"/>
</svg>