<svg width="30" height="34" viewBox="0 0 30 34" fill="none" xmlns="http://www.w3.org/2000/svg">
<path d="M25 16.1944V9.94444L19.375 3H6.25C5.55964 3 5 3.62183 5 4.38889V29.3889C5 30.156 5.55964 30.7778 6.25 30.7778H12.5" stroke="#4FB96E" stroke-width="2" stroke-linecap="round" stroke-linejoin="round"/>
<path d="M21.25 25.2221C22.6307 25.2221 23.75 23.9784 23.75 22.4443C23.75 20.9102 22.6307 19.6665 21.25 19.6665C19.8693 19.6665 18.75 20.9102 18.75 22.4443C18.75 23.9784 19.8693 25.2221 21.25 25.2221Z" stroke="#4FB96E" stroke-width="2" stroke-linecap="round" stroke-linejoin="round"/>
<path d="M26.25 30.7777C26.25 27.7095 24.0114 25.2222 21.25 25.2222C18.4886 25.2222 16.25 27.7095 16.25 30.7777" stroke="#4FB96E" stroke-width="2" stroke-linecap="round" stroke-linejoin="round"/>
<path d="M18.75 3V9.94444H25" stroke="#4FB96E" stroke-width="2" stroke-linecap="round" stroke-linejoin="round"/>
</svg>
