<svg width="39" height="30" viewBox="0 0 39 30" fill="none" xmlns="http://www.w3.org/2000/svg">
<path d="M37.8059 0.541459C38.2302 0.919009 38.4872 1.44954 38.5206 2.0165C38.5539 2.58346 38.3609 3.14047 37.9838 3.56516L15.1271 29.2805C14.9261 29.5068 14.6794 29.6879 14.4033 29.8119C14.1272 29.9359 13.8279 30 13.5253 30C13.2226 30 12.9233 29.9359 12.6472 29.8119C12.3711 29.6879 12.1245 29.5068 11.9234 29.2805L0.495059 16.4228C0.139583 15.9952 -0.0357571 15.4462 0.00607748 14.8917C0.0479121 14.3372 0.303646 13.8207 0.719255 13.4513C1.13486 13.0818 1.6778 12.8884 2.23337 12.9119C2.78894 12.9354 3.31364 13.1739 3.69662 13.577L13.5242 24.6325L34.7822 0.717181C35.1601 0.29321 35.6908 0.0365611 36.2577 0.00361287C36.8247 -0.0293354 37.3815 0.164112 37.8059 0.541459Z" fill="#4FB96E"/>
</svg>
