<svg width="40" height="50" viewBox="0 0 40 50" fill="none" xmlns="http://www.w3.org/2000/svg">
<path d="M0 5C0 3.67392 0.526784 2.40215 1.46447 1.46447C2.40215 0.526784 3.67392 0 5 0H25C25.663 0.000141594 26.2988 0.263627 26.7675 0.7325L39.2675 13.2325C39.7364 13.7012 39.9999 14.337 40 15V45C40 46.3261 39.4732 47.5979 38.5355 48.5355C37.5979 49.4732 36.3261 50 35 50H5C3.67392 50 2.40215 49.4732 1.46447 48.5355C0.526784 47.5979 0 46.3261 0 45V5ZM33.965 15L25 6.035V15H33.965ZM20 5H5V45H35V20H22.5C21.837 20 21.2011 19.7366 20.7322 19.2678C20.2634 18.7989 20 18.163 20 17.5V5Z" fill="#FF4141"/>
</svg>
