<svg width="40" height="50" viewBox="0 0 40 50" fill="none" xmlns="http://www.w3.org/2000/svg">
<path d="M0 5C0 3.67392 0.526784 2.40215 1.46447 1.46447C2.40215 0.526784 3.67392 0 5 0H25C25.663 0.000141594 26.2988 0.263627 26.7675 0.7325L39.2675 13.2325C39.7364 13.7012 39.9999 14.337 40 15V45C40 46.3261 39.4732 47.5979 38.5355 48.5355C37.5979 49.4732 36.3261 50 35 50H5C3.67392 50 2.40215 49.4732 1.46447 48.5355C0.526784 47.5979 0 46.3261 0 45V5ZM33.965 15L25 6.035V15H33.965ZM20 5H5V45H35V20H22.5C21.837 20 21.2011 19.7366 20.7322 19.2678C20.2634 18.7989 20 18.163 20 17.5V5ZM29.2675 25.7325C29.7362 26.2013 29.9995 26.8371 29.9995 27.5C29.9995 28.1629 29.7362 28.7987 29.2675 29.2675L19.2675 39.2675C18.7987 39.7362 18.1629 39.9995 17.5 39.9995C16.8371 39.9995 16.2013 39.7362 15.7325 39.2675L10.7325 34.2675C10.4937 34.0369 10.3033 33.761 10.1722 33.456C10.0412 33.151 9.97226 32.823 9.96937 32.491C9.96649 32.1591 10.0297 31.8299 10.1554 31.5226C10.2811 31.2154 10.4668 30.9362 10.7015 30.7015C10.9362 30.4668 11.2154 30.2811 11.5226 30.1554C11.8299 30.0297 12.1591 29.9665 12.491 29.9694C12.823 29.9723 13.151 30.0412 13.456 30.1722C13.761 30.3033 14.0369 30.4937 14.2675 30.7325L17.5 33.965L25.7325 25.7325C26.2013 25.2638 26.8371 25.0005 27.5 25.0005C28.1629 25.0005 28.7987 25.2638 29.2675 25.7325Z" fill="#4F6DB9"/>
</svg>
