<svg width="30" height="34" viewBox="0 0 30 34" fill="none" xmlns="http://www.w3.org/2000/svg">
<path d="M26.25 5.77783H3.75C3.05964 5.77783 2.5 6.39966 2.5 7.16672V26.6112C2.5 27.3782 3.05964 28.0001 3.75 28.0001H26.25C26.9404 28.0001 27.5 27.3782 27.5 26.6112V7.16672C27.5 6.39966 26.9404 5.77783 26.25 5.77783Z" stroke="#4FB96E" stroke-width="2" stroke-linejoin="round"/>
<path d="M10.625 17.5834C12.0057 17.5834 13.125 16.3397 13.125 14.8056C13.125 13.2715 12.0057 12.0278 10.625 12.0278C9.24431 12.0278 8.125 13.2715 8.125 14.8056C8.125 16.3397 9.24431 17.5834 10.625 17.5834Z" stroke="#4FB96E" stroke-width="2" stroke-linejoin="round"/>
<path d="M14.375 21.7499C14.375 19.4487 12.6961 17.5833 10.625 17.5833C8.55394 17.5833 6.875 19.4487 6.875 21.7499" stroke="#4FB96E" stroke-width="2" stroke-linecap="round" stroke-linejoin="round"/>
<path d="M17.5 14.1111H22.5" stroke="#4FB96E" stroke-width="2" stroke-linecap="round" stroke-linejoin="round"/>
<path d="M18.75 19.6665H22.5" stroke="#4FB96E" stroke-width="2" stroke-linecap="round" stroke-linejoin="round"/>
</svg>
