<svg width="27" height="31" viewBox="0 0 27 31" fill="none" xmlns="http://www.w3.org/2000/svg">
<path d="M17.6738 16.3319C18.7767 15.3677 19.5818 14.0455 19.977 12.5493C20.3721 11.0531 20.3377 9.4572 19.8786 7.9837C19.4194 6.51021 18.5583 5.23236 17.4151 4.32794C16.2719 3.42352 14.9034 2.9375 13.5001 2.9375C12.0967 2.9375 10.7282 3.42352 9.58498 4.32794C8.44177 5.23236 7.5807 6.51021 7.12155 7.9837C6.6624 9.4572 6.62801 11.0531 7.02316 12.5493C7.41832 14.0455 8.22337 15.3677 9.32631 16.3319C7.43639 17.1732 5.78738 18.5686 4.55506 20.3693C3.32274 22.17 2.55332 24.3085 2.32881 26.5569C2.31256 26.721 2.32556 26.8871 2.36709 27.0457C2.40861 27.2043 2.47783 27.3522 2.57081 27.481C2.75858 27.7412 3.03169 27.9079 3.33006 27.9444C3.62843 27.9808 3.92761 27.8841 4.1618 27.6755C4.39598 27.4668 4.54599 27.1634 4.57881 26.8319C4.82584 24.3884 5.87445 22.1316 7.5243 20.4929C9.17415 18.8541 11.3096 17.9482 13.5226 17.9482C15.7355 17.9482 17.871 18.8541 19.5208 20.4929C21.1707 22.1316 22.2193 24.3884 22.4663 26.8319C22.4969 27.139 22.6288 27.4227 22.8366 27.6281C23.0443 27.8336 23.3132 27.9462 23.5913 27.9444H23.7151C24.01 27.9067 24.2795 27.741 24.4649 27.4834C24.6504 27.2259 24.7367 26.8973 24.7051 26.5694C24.4795 24.3146 23.7059 22.1706 22.4673 20.3671C21.2286 18.5636 19.5716 17.1687 17.6738 16.3319V16.3319ZM13.5001 15.4444C12.61 15.4444 11.74 15.1511 11 14.6017C10.26 14.0523 9.68319 13.2714 9.3426 12.3578C9.002 11.4442 8.91289 10.4388 9.08652 9.46892C9.26016 8.49901 9.68874 7.6081 10.3181 6.90884C10.9474 6.20957 11.7492 5.73337 12.6222 5.54044C13.4951 5.34752 14.3999 5.44653 15.2221 5.82497C16.0444 6.20341 16.7472 6.84427 17.2417 7.66652C17.7361 8.48876 18.0001 9.45546 18.0001 10.4444C18.0001 11.7705 17.526 13.0422 16.682 13.9799C15.8381 14.9176 14.6935 15.4444 13.5001 15.4444Z" fill="#4FB96E"/>
</svg>
