<svg width="30" height="35" viewBox="0 0 30 35" fill="none" xmlns="http://www.w3.org/2000/svg">
<path d="M24.375 4.90137H5.625C4.58947 4.90137 3.75 5.84725 3.75 7.01404V28.1408C3.75 29.3076 4.58947 30.2535 5.625 30.2535H24.375C25.4106 30.2535 26.25 29.3076 26.25 28.1408V7.01404C26.25 5.84725 25.4106 4.90137 24.375 4.90137Z" stroke="#4FB96E" stroke-width="2"/>
<path d="M12.1501 10.5352C12.4278 10.5352 12.6837 10.7049 12.8185 10.9785L13.7538 12.8766C13.8762 13.1252 13.882 13.4258 13.7691 13.6801L13.125 15.4647C13.125 15.4647 13.2823 17.0504 14.375 18.2816C15.4678 19.5128 16.875 19.6901 16.875 19.6901L18.4541 18.9595C18.68 18.8322 18.9469 18.8387 19.1676 18.977L20.857 20.0353C21.0996 20.1873 21.25 20.4755 21.25 20.7883V22.9735C21.25 24.0864 20.3326 24.8902 19.3968 24.5344C17.4747 23.8037 14.4911 22.4123 12.6001 20.2815C10.7091 18.1508 9.4742 14.789 8.82564 12.6233C8.50989 11.5689 9.22327 10.5352 10.211 10.5352H12.1501Z" stroke="#4FB96E" stroke-width="2" stroke-linejoin="round"/>
</svg>
